Coordinates
version=1
nRows=19
nColumns=36
inDegrees=yes

Units are S.I. units (second, meters, Newtons, ...)
If the header above contains a line with 'inDegrees', this indicates whether rotational values are in degrees (yes) or radians (no).

endheader
time	pelvis_tilt	pelvis_list	pelvis_rotation	pelvis_tx	pelvis_ty	pelvis_tz	hip_flexion_r	hip_adduction_r	hip_rotation_r	knee_angle_r	knee_angle_r_beta	ankle_angle_r	subtalar_angle_r	mtp_angle_r	hip_flexion_l	hip_adduction_l	hip_rotation_l	knee_angle_l	knee_angle_l_beta	ankle_angle_l	subtalar_angle_l	mtp_angle_l	lumbar_extension	lumbar_bending	lumbar_rotation	arm_flex_r	arm_add_r	arm_rot_r	elbow_flex_r	pro_sup_r	arm_flex_l	arm_add_l	arm_rot_l	elbow_flex_l	pro_sup_l
      2.84166670	    -16.68365812	      0.20636968	      1.72251675	      0.23981773	      0.89630137	     -0.05071874	     44.05708412	     -7.68700352	      0.10992061	     57.33839745	      1.00074382	     23.62734760	     -4.87710260	     -7.49999987	     40.85553278	     -7.45262411	     -4.89956166	     54.42668222	      0.94992481	     28.52853466	     -0.84695764	     -7.49999987	    -13.19858573	     -2.52268879	      3.95913394	      2.98802195	    -24.15394268	     14.15094079	     66.41700461	     79.66758702	      3.90693892	    -31.24438376	     13.17464118	     47.87241644	     54.10000368
      2.84583330	    -16.68913473	      0.15709994	      1.79498662	      0.24436527	      0.90209474	     -0.05271934	     43.21534717	     -7.77888636	     -0.15864208	     56.29869075	      0.98259752	     23.04074000	     -4.68758366	     -7.49999987	     39.96861735	     -7.46085107	     -5.11681114	     53.18929255	      0.92832828	     28.05712856	     -0.24421531	     -7.49999987	    -11.83878428	     -2.35559239	      3.95112943	      1.40745797	    -24.30236507	     14.17564785	     66.09614150	     79.66510783	      2.37061039	    -31.74507372	     13.24205477	     47.40029162	     54.03786202
      2.85000000	    -16.90611097	      0.15150599	      1.82907379	      0.24623360	      0.90735740	     -0.05339142	     42.75673148	     -7.81274434	     -0.34367757	     55.20613066	      0.96352875	     21.75785843	     -5.35518160	     -7.49999987	     39.34309769	     -7.43375208	     -5.38764531	     51.87736033	      0.90543074	     27.49688558	      0.53239506	     -7.49999987	    -10.33088959	     -2.23336247	      3.70978761	      0.14838264	    -24.06679460	     13.90372789	     65.37572073	     79.17974194	      0.74252650	    -32.20142566	     13.16788911	     46.79834326	     53.79258336
      2.85416670	    -16.86864069	      0.08575411	      1.94800663	      0.24892090	      0.91660669	     -0.05317868	     41.82208246	     -7.85317758	     -0.73381181	     53.77967589	      0.93863241	     20.02559558	     -6.17666621	     -7.49999987	     38.33760567	     -7.32500490	     -5.44011958	     50.18261499	      0.87585186	     26.29939901	      0.81481277	     -7.49999987	     -9.33412398	     -2.07195117	      3.55114985	     -1.13898000	    -24.07002313	     13.88362234	     64.99634741	     79.15798069	     -0.57531146	    -32.65833914	     13.14379423	     46.51005074	     53.45987155
      2.85833330	    -16.84658716	      0.06097346	      1.99625185	      0.25432292	      0.92382953	     -0.05394396	     40.79472335	     -7.97302281	     -1.21315685	     52.24117812	      0.91178056	     18.74318827	     -6.04840781	     -7.49999987	     37.20296710	     -7.26167652	     -5.72086046	     48.42291802	      0.84513935	     25.24103478	      1.27605397	     -7.49999987	     -8.26861354	     -1.92793482	      3.46664593	     -2.56202577	    -24.12150188	     14.03318844	     64.82524243	     79.15463483	     -1.90912976	    -33.01597887	     13.25714199	     46.16445794	     53.35354981
      2.86250000	    -16.19148507	      0.06205780	      2.13767304	      0.25806419	      0.93116146	     -0.05302909	     38.95677682	     -7.87911926	     -1.50434143	     50.35575419	      0.87887371	     16.91463287	     -7.29679157	     -7.49999987	     35.24016437	     -7.23139514	     -6.02590184	     46.42711351	      0.81030599	     23.91216711	      1.06500575	     -7.49999987	     -8.25155847	     -1.88757823	      3.04037005	     -3.31407646	    -23.90115924	     14.08326875	     64.07465025	     79.11366273	     -2.96325495	    -33.56241877	     13.49889179	     45.53459452	     52.76906091
      2.86666670	    -15.81745975	      0.06099099	      2.30352416	      0.25974330	      0.93708857	     -0.05215399	     37.63998710	     -7.84685396	     -1.98273638	     48.83452261	      0.85232321	     16.00791636	     -7.49999712	     -7.49999987	     33.91393058	     -7.24509855	     -6.44170764	     44.74171844	      0.78089030	     22.88523812	      1.14470165	     -7.49999987	     -7.85604778	     -1.88902321	      2.78015076	     -4.33002443	    -23.82095266	     14.31146855	     63.71484262	     78.52798683	     -4.16193653	    -34.09925781	     13.59217648	     45.28111731	     52.41914223
      2.87083330	    -15.93864755	      0.05523186	      2.51973838	      0.26418275	      0.94474821	     -0.05676494	     36.61332608	     -8.02681408	     -2.47998346	     46.98007943	      0.81995707	     15.16444545	     -6.81927751	     -7.49999987	     32.97250660	     -7.04247147	     -6.85069611	     42.82573856	      0.74745014	     21.96223612	      1.50771280	     -7.49999987	     -6.69229031	     -1.69328421	      2.70277984	     -5.86965373	    -24.02194642	     14.46120189	     63.52746390	     78.50979107	     -5.45021300	    -34.34377995	     13.70106433	     45.01723736	     52.31225910
      2.87500000	    -15.40847148	      0.21511922	      2.76680737	      0.26580667	      0.95189937	     -0.05584440	     35.06996324	     -8.29951525	     -2.87672211	     45.30470844	      0.79071633	     14.03224785	     -6.22291625	     -7.49999987	     31.32917996	     -6.67704453	     -7.25109640	     40.68808735	      0.71014109	     20.24858021	      1.29128828	     -7.49999987	     -6.84001109	     -1.74904257	      2.19234210	     -6.50152878	    -23.95578728	     14.56692435	     62.79105363	     77.63719434	     -6.42634229	    -34.53068372	     13.57513316	     44.31401157	     51.90953634
      2.87916670	    -15.53934950	      0.18529546	      2.87876333	      0.26957764	      0.95623807	     -0.05472959	     34.38273247	     -8.32892015	     -3.35497697	     43.94454325	      0.76697697	     13.06944583	     -5.52480374	     -7.49999987	     30.48488098	     -6.67323383	     -7.71681715	     38.83705145	      0.67783442	     19.04997225	      1.69711898	     -7.49999987	     -5.93697760	     -1.66326732	      2.09189255	     -7.71428860	    -24.10831736	     14.75048383	     62.61539659	     77.33265636	     -7.62308690	    -34.85888854	     13.55151126	     44.11009928	     51.81295561
      2.88333330	    -15.16049446	      0.41817779	      2.99079957	      0.27540557	      0.96206638	     -0.05576857	     32.99413403	     -8.51644169	     -3.54392081	     42.54128469	      0.74248549	     11.93687872	     -5.05231190	     -7.49999987	     28.87652956	     -6.39141832	     -8.22620856	     36.83632313	      0.64291512	     17.75228580	      2.41284291	     -7.49999987	     -5.41377505	     -1.87754449	      1.76139858	     -8.35268396	    -24.12373733	     15.34095869	     61.66800233	     77.11602660	     -8.76613540	    -35.06675605	     13.42423166	     43.15811592	     50.99751173
      2.88750000	    -14.94616528	      0.65054706	      3.01350313	      0.27882669	      0.96929638	     -0.05612586	     31.81159389	     -8.70188925	     -3.79562210	     41.08063092	      0.71699227	     10.87507425	     -4.32438251	     -7.49999987	     27.44832982	     -6.09089023	     -8.79498790	     34.80373625	      0.60743979	     16.26318691	      2.97174660	     -7.49999987	     -4.70659824	     -2.07400604	      1.58099996	     -9.12010936	    -24.28143857	     16.01296200	     61.08652508	     76.90203544	    -10.01278266	    -35.27083444	     13.31678495	     42.52654866	     50.08765606
      2.89166670	    -15.13425357	      0.70550350	      2.97118703	      0.28071230	      0.97543166	     -0.05640727	     31.13888887	     -8.75291035	     -4.13978362	     39.53834118	      0.69007423	      9.69324468	     -3.60884312	     -7.49999987	     26.53516620	     -5.93586419	     -9.33428240	     32.83464734	      0.57307270	     14.94948871	      3.67847366	     -7.49999987	     -3.56021627	     -2.10808760	      1.63986890	    -10.29715452	    -24.48361159	     16.22175572	     60.97517560	     76.85666407	    -11.19930799	    -35.51004364	     13.32608271	     42.14750823	     49.92462533
      2.89583330	    -15.25791262	      0.85629811	      2.84252486	      0.28260702	      0.98358008	     -0.05470146	     30.42579079	     -8.78922845	     -4.30972413	     37.72555956	      0.65843523	      8.33171144	     -3.08131530	     -7.49999987	     25.41621899	     -5.76616641	     -9.97296396	     30.56788885	      0.53351031	     13.16587971	      4.22215466	     -7.49999987	     -2.76971200	     -2.28437358	      1.65169419	    -11.18144907	    -24.54996000	     16.44528199	     60.66150326	     76.76241145	    -12.24044941	    -35.71714633	     13.26415345	     41.54752326	     49.68844186
      2.90000000	    -14.82089024	      1.08443691	      2.53366043	      0.28438841	      0.99194686	     -0.05550591	     29.19747736	     -8.84202112	     -4.29432059	     35.93516095	      0.62718688	      6.21063385	     -3.66176826	     -7.49999987	     23.50235968	     -5.38275535	    -10.31542428	     27.83555669	      0.48582211	     11.19218440	      4.50565267	     -7.49999987	     -2.88113361	     -2.50759986	      1.53732874	    -11.23376125	    -24.55511138	     17.18920478	     59.62724897	     76.35004223	    -13.01602801	    -35.70217801	     12.88593518	     40.40038540	     48.76274902
      2.90416670	    -14.78051356	      1.17735583	      2.31173655	      0.28836240	      1.00031415	     -0.05602841	     28.28559424	     -8.84709661	     -4.52744232	     34.06793205	      0.59459758	      4.10924274	     -3.45153993	     -7.49999987	     22.12878691	     -5.07200284	    -10.48919520	     25.29283599	      0.44144327	      9.35530743	      5.35308577	     -7.49999987	     -2.37410233	     -2.62306176	      1.38596272	    -11.80045369	    -24.61616177	     17.59844770	     59.17297481	     76.09453237	    -14.13366649	    -35.75023234	     12.85432891	     39.69884817	     48.26952334
      2.90833330	    -14.61462922	      1.21257002	      2.22936205	      0.29060928	      1.00448985	     -0.05477437	     27.36317999	     -8.75282666	     -4.77433211	     32.52984601	      0.56775292	      2.35070907	     -3.31344599	     -7.49999987	     20.90455132	     -4.94133260	    -10.56152578	     23.35309325	      0.40758837	      7.37727002	      5.74211818	     -7.49999987	     -2.05090413	     -2.68450760	      0.70675615	    -11.39628664	    -24.86968297	     19.62729638	     58.04120215	     73.51460999	    -15.65874579	    -35.71574705	     12.48109177	     39.11585215	     44.40671352
      2.91250000	    -14.60967236	      1.28042695	      2.05855105	      0.29304360	      1.00902268	     -0.05580519	     26.77641817	     -8.71804104	     -4.70397425	     31.19052707	      0.54437739	      0.27970983	     -3.39546438	     -7.49999987	     19.94258580	     -4.70861065	    -10.54530007	     21.55150300	      0.37614469	      5.48508228	      5.70993036	     -7.49999987	     -1.63186325	     -2.67130959	      0.73101467	    -12.04258237	    -24.82849218	     19.53197222	     57.68722802	     72.64619520	    -16.43127603	    -35.65192198	     12.41734401	     38.21510502	     44.96847817
      2.91666670	    -14.72057408	      1.28404242	      1.84554223	      0.29444632	      1.01650456	     -0.05546161	     26.32274700	     -8.54477750	     -4.76121325	     29.70043230	      0.51837033	     -1.96200806	     -3.40530170	     -7.49999987	     19.09807559	     -4.54533008	    -10.36602585	     19.64207081	      0.34281881	      3.33067113	      5.66719513	     -7.49999987	     -1.16782173	     -2.66402352	      0.53992973	    -12.64833948	    -24.68715732	     19.40847523	     57.35669612	     72.58749682	    -17.27205771	    -35.59997002	     12.63313156	     37.39047105	     44.80469086
